<svg width="24" height="30" viewBox="0 0 24 30" fill="none" xmlns="http://www.w3.org/2000/svg">
<path d="M12.3968 29.3126H12.3342L12.2728 29.3253C12.1418 29.3526 12.0086 29.368 11.8749 29.3711C11.2598 29.3661 10.6711 29.1204 10.235 28.6864C9.94551 28.3984 9.73861 28.0427 9.62985 27.6562H14.1141C14.088 27.7576 14.0552 27.8574 14.0157 27.9549C13.8647 28.2987 13.6345 28.6021 13.344 28.8402C13.0675 29.0668 12.7438 29.2281 12.3969 29.3126H12.3968ZM3.35937 21.7307L3.69538 21.5627V21.187V13.1277V13.1163L3.69495 13.105C3.62184 11.1469 4.06322 9.20399 4.97503 7.46979C5.40686 6.70862 5.99467 6.04726 6.69996 5.52906C7.40766 5.0091 8.21757 4.6451 9.07625 4.46108L9.55672 4.35811V3.86673V2.43071C9.55672 1.79527 10.0718 1.28015 10.7073 1.28015H13.0518C13.6873 1.28015 14.2024 1.79527 14.2024 2.43071V3.86673V4.34685L14.6694 4.45805C16.4085 4.87208 17.7384 5.82587 18.6445 7.25732C19.5585 8.70128 20.0637 10.6688 20.0637 13.1277V21.187V21.5627L20.3997 21.7307L22.3584 22.71C22.7482 22.9049 22.9944 23.3033 22.9944 23.7391V23.8246C22.9944 24.46 22.4793 24.9752 21.8438 24.9752H1.91526C1.27983 24.9752 0.764704 24.46 0.764704 23.8246V23.7391C0.764704 23.3033 1.01093 22.9049 1.40072 22.71L3.35937 21.7307Z" stroke="black" stroke-width="1.21569"/>
</svg>
