<svg width="65" height="62" viewBox="0 0 70 66" fill="none" xmlns="http://www.w3.org/2000/svg">
<path d="M37.2539 65.1351V37.4196L59.4035 25.0838V53.2799L37.2539 65.1351Z" fill="#58A0DF"/>
<path d="M36.9508 15.8299L15.1046 26.6012L37.5576 37.3726L59.4038 24.9324L36.9508 15.8299Z" stroke="#525252" stroke-width="0.303419"/>
<path d="M37.2543 37.3725L37.1026 65.1353L14.953 54.0605V26.9045L37.2543 37.3725Z" fill="#58A0DF"/>
<path d="M5.39516 32.0629L15.1046 26.6013L36.799 37.3727L26.3311 42.8342L5.39516 32.0629Z" fill="#58A0DF" stroke="#525252" stroke-width="0.303419"/>
<path d="M37.4053 15.829L15.2557 26.4487L5.09116 21.1389L26.4822 10.5192L37.4053 15.829Z" fill="#58A0DF" stroke="#525252" stroke-width="0.303419"/>
<path d="M59.5552 24.9322L37.2539 37.3723L47.8736 43.289L69.1129 31.6074L59.5552 24.9322Z" fill="#58A0DF" stroke="#525252" stroke-width="0.303419"/>
<path d="M37.1024 15.6779L59.5554 24.9322L68.3546 16.4364L47.8738 8.39585L37.1024 15.6779Z" fill="#58A0DF" stroke="#525252" stroke-width="0.303419"/>
</svg>
