<svg width="49" height="51" viewBox="0 0 49 51" fill="none" xmlns="http://www.w3.org/2000/svg">
<path d="M43.0286 0.298676H18.122C15.3496 0.298676 13.1062 2.54204 13.1062 5.31444V19.381L1.37286 30.9647C1.0213 31.3124 0.780954 31.7567 0.682337 32.2412C0.58372 32.7257 0.631273 33.2287 0.818962 33.6861C1.00665 34.1436 1.32601 34.535 1.73652 34.8106C2.14703 35.0862 2.63017 35.2337 3.12463 35.2343V47.7113C3.12463 48.3731 3.38754 49.0079 3.85552 49.4758C4.3235 49.9438 4.95821 50.2067 5.62003 50.2067H45.5465C46.2083 50.2067 46.843 49.9438 47.311 49.4758C47.779 49.0079 48.0419 48.3731 48.0419 47.7113V5.31194C48.0419 2.54204 45.801 0.298676 43.0286 0.298676ZM22.8932 33.0159V45.2159H8.11544V31.3215L15.5692 23.9626L22.8932 31.4563V33.0159ZM28.0787 17.7665H23.0878V12.7757H28.0787V17.7665ZM38.0603 37.7297H33.0695V32.7389H38.0603V37.7297ZM38.0603 27.7481H33.0695V22.7573H38.0603V27.7481ZM38.0603 17.7665H33.0695V12.7757H38.0603V17.7665Z" fill="#58A0DF"/>
</svg>
