<svg width="25" height="24" viewBox="0 0 27 26" fill="none" xmlns="http://www.w3.org/2000/svg">
<path d="M13.5674 9.97366L18.5731 12.9622V19.0454L13.5674 22.759L8.19105 19.0454V12.9622L13.5674 9.97366Z" stroke="white" stroke-width="1.51667"/>
<path d="M11.6462 2.75867C11.6462 3.89819 12.5177 4.75901 13.517 4.75901C14.5164 4.75901 15.3879 3.89819 15.3879 2.75867C15.3879 1.61915 14.5164 0.758333 13.517 0.758333C12.5177 0.758333 11.6462 1.61915 11.6462 2.75867Z" stroke="white" stroke-width="1.51667"/>
<path d="M22.4999 21.6788C22.4999 22.8184 23.3715 23.6792 24.3708 23.6792C25.3701 23.6792 26.2417 22.8184 26.2417 21.6788C26.2417 20.5393 25.3701 19.6785 24.3708 19.6785C23.3715 19.6785 22.4999 20.5393 22.4999 21.6788Z" stroke="white" stroke-width="1.51667"/>
<path d="M0.758337 21.5727C0.758337 22.7122 1.62989 23.5731 2.62921 23.5731C3.62853 23.5731 4.50009 22.7122 4.50009 21.5727C4.50009 20.4332 3.62853 19.5724 2.62921 19.5724C1.62989 19.5724 0.758337 20.4332 0.758337 21.5727Z" stroke="white" stroke-width="1.51667"/>
<line y1="-0.758333" x2="4.20368" y2="-0.758333" transform="matrix(-0.882051 -0.471155 -0.436529 0.89969 22.2809 21.0791)" stroke="white" stroke-width="1.51667"/>
<line y1="-0.758333" x2="3.9644" y2="-0.758333" transform="matrix(0.850264 -0.526357 0.490137 0.871646 4.82031 21.1498)" stroke="white" stroke-width="1.51667"/>
<line y1="-0.758333" x2="4.52719" y2="-0.758333" transform="matrix(0.00744566 0.999972 -0.999966 0.00819691 13.4832 5.44661)" stroke="white" stroke-width="1.51667"/>
</svg>
