<svg width="24" height="19" viewBox="0 0 28 26" fill="none" xmlns="http://www.w3.org/2000/svg">
<path d="M16.6 21.7913C21.5023 21.7913 23.9541 21.7913 25.4764 20.2683C27 18.7467 27 16.2959 27 11.3956C27 6.4954 27 4.04462 25.4764 2.52296C23.9541 1 21.5023 1 16.6 1H11.4C6.4977 1 4.0459 1 2.5236 2.52296C1 4.04462 1 6.4954 1 11.3956C1 16.2959 1 18.7467 2.5236 20.2683C3.3725 21.1182 4.51 21.4937 6.2 21.6587" stroke="white" stroke-width="1.47813" stroke-linecap="round" stroke-linejoin="round"/>
<path d="M16.6 21.791C14.9932 21.791 13.2226 22.4407 11.6067 23.2789C9.00932 24.6264 7.71062 25.3008 7.07102 24.8707C6.43142 24.4419 6.55232 23.1099 6.79542 20.4473L6.85002 19.8418" stroke="white" stroke-width="1.47813" stroke-linecap="round"/>
</svg>
