<svg width="61" height="48" viewBox="0 0 61 48" fill="none" xmlns="http://www.w3.org/2000/svg">
<g clip-path="url(#clip0_1_599)">
<path d="M9.90256 20.9147C13.1768 20.9147 15.8388 18.2526 15.8388 14.9784C15.8388 11.7042 13.1768 9.04213 9.90256 9.04213C6.62834 9.04213 3.9663 11.7042 3.9663 14.9784C3.9663 18.2526 6.62834 20.9147 9.90256 20.9147ZM51.4564 20.9147C54.7306 20.9147 57.3927 18.2526 57.3927 14.9784C57.3927 11.7042 54.7306 9.04213 51.4564 9.04213C48.1822 9.04213 45.5201 11.7042 45.5201 14.9784C45.5201 18.2526 48.1822 20.9147 51.4564 20.9147ZM54.4245 23.8828H48.4883C46.8558 23.8828 45.381 24.5413 44.305 25.608C48.043 27.6579 50.6958 31.3588 51.2709 35.7553H57.3927C59.0344 35.7553 60.3608 34.4289 60.3608 32.7872V29.819C60.3608 26.5448 57.6987 23.8828 54.4245 23.8828ZM30.6795 23.8828C36.421 23.8828 41.0679 19.2358 41.0679 13.4943C41.0679 7.75285 36.421 3.10587 30.6795 3.10587C24.938 3.10587 20.291 7.75285 20.291 13.4943C20.291 19.2358 24.938 23.8828 30.6795 23.8828ZM37.803 26.8509H37.0331C35.1038 27.7785 32.9612 28.335 30.6795 28.335C28.3977 28.335 26.2644 27.7785 24.3258 26.8509H23.556C17.6568 26.8509 12.8707 31.637 12.8707 37.5362V40.2075C12.8707 42.6655 14.8649 44.6597 17.3229 44.6597H44.0361C46.494 44.6597 48.4883 42.6655 48.4883 40.2075V37.5362C48.4883 31.637 43.7021 26.8509 37.803 26.8509ZM17.0539 25.608C15.978 24.5413 14.5032 23.8828 12.8707 23.8828H6.93443C3.66021 23.8828 0.998169 26.5448 0.998169 29.819V32.7872C0.998169 34.4289 2.32455 35.7553 3.9663 35.7553H10.0788C10.6631 31.3588 13.3159 27.6579 17.0539 25.608Z" fill="#58A0DF"/>
</g>
<defs>
<clipPath id="clip0_1_599">
<rect width="59.3626" height="47.4901" fill="white" transform="translate(0.998169 0.137756)"/>
</clipPath>
</defs>
</svg>
