<svg width="23" height="21" viewBox="0 0 26 27" fill="none" xmlns="http://www.w3.org/2000/svg">
<path d="M21.598 13.2724C21.598 17.9234 17.7419 21.717 12.9562 21.717C8.17047 21.717 4.31435 17.9234 4.31435 13.2724C4.31435 8.62148 8.17047 4.8279 12.9562 4.8279C17.7419 4.8279 21.598 8.62148 21.598 13.2724Z" stroke="white" stroke-width="1.27323"/>
<path d="M11.4513 0.74118C11.4513 0.68343 11.4981 0.636615 11.5559 0.636615H15.0696C15.1274 0.636615 15.1742 0.68343 15.1742 0.741179V4.50499C13.9544 4.218 12.6913 4.16346 11.4513 4.34426V0.74118Z" stroke="white" stroke-width="1.27323"/>
<path d="M11.4511 26.2588C11.4511 26.3166 11.4979 26.3634 11.5556 26.3634H15.0694C15.1271 26.3634 15.1739 26.3166 15.1739 26.2588V22.495C13.9542 22.782 12.6911 22.8365 11.4511 22.6557V26.2588Z" stroke="white" stroke-width="1.27323"/>
<path d="M23.0819 5.22445C23.1313 5.1946 23.1964 5.21001 23.2272 5.25886L25.0598 8.1665C25.0906 8.21536 25.0755 8.27916 25.0261 8.30901L21.7374 10.2946C21.347 9.13626 20.7339 8.06053 19.9316 7.12651L23.0819 5.22445Z" stroke="white" stroke-width="1.27323"/>
<path d="M24.2571 19.2098C24.3038 19.2437 24.3135 19.3085 24.2787 19.3545L22.1789 22.1315C22.1453 22.1759 22.0822 22.187 22.0355 22.1565L18.9818 20.1689C19.9122 19.2565 20.6908 18.2074 21.2895 17.0603L24.2571 19.2098Z" stroke="white" stroke-width="1.27323"/>
<path d="M3.02692 5.113C2.97748 5.08315 2.91244 5.09856 2.88165 5.14741L1.03358 8.0795C1.00365 8.12698 1.017 8.1889 1.06383 8.21978L4.0942 10.218C4.6149 9.05123 5.31545 7.96946 6.17061 7.01107L3.02692 5.113Z" stroke="white" stroke-width="1.27323"/>
<path d="M1.78998 19.1638C1.74538 19.1983 1.737 19.2615 1.77104 19.3065L3.88489 22.1021C3.9185 22.1466 3.98159 22.1576 4.02833 22.1271L7.08301 20.1388C6.11807 19.2007 5.27284 18.1513 4.56606 17.014L1.78998 19.1638Z" stroke="white" stroke-width="1.27323"/>
</svg>
