<svg width="50" height="46" viewBox="0 0 50 46" fill="none" xmlns="http://www.w3.org/2000/svg">
<path d="M3.16824 32.2184L0.907379 31.088L1.09578 43.5227L6.55954 43.3343V29.0155L3.16824 32.2184Z" fill="#58A0DF"/>
<path d="M13.7189 14.3202L0.907379 26.5665L3.16824 29.0158L13.7189 19.0303L23.516 28.4506L44.8058 7.72602L48.9507 11.4941V0.378216H37.6464L41.7913 5.46516L23.516 23.3637L13.7189 14.3202Z" fill="#58A0DF"/>
<path d="M13.3422 22.0442L9.19725 25.8123V43.1456H14.661L14.8494 23.1747L13.3422 22.0442Z" fill="#58A0DF"/>
<path d="M17.6756 43.334V26.0007L22.7625 30.7109V43.334H17.6756Z" fill="#58A0DF"/>
<path d="M31.2408 23.9292L25.9654 29.0162V43.335L31.2408 42.9582V23.9292Z" fill="#58A0DF"/>
<path d="M39.5303 15.8282L34.4433 20.7267V43.3354H39.7187L39.5303 15.8282Z" fill="#58A0DF"/>
<path d="M44.4292 10.9284L42.7336 12.624L42.5452 43.3341H47.8205V14.1313L44.4292 10.9284Z" fill="#58A0DF"/>
<path d="M3.35554 32.5315L0.956116 31.0918V43.5688L47.9849 43.0889V14.2958L44.6257 10.9366L23.9906 32.0516L13.4331 21.974L3.35554 32.5315Z" fill="#58A0DF" stroke="#58A0DF" stroke-width="0.95977"/>
</svg>
